<?xml version="1.0" standalone="no"?>
<!DOCTYPE svg PUBLIC "-//W3C//DTD SVG 20010904//EN"
 "http://www.w3.org/TR/2001/REC-SVG-20010904/DTD/svg10.dtd">
<svg version="1.0" xmlns="http://www.w3.org/2000/svg"
 width="349.000000pt" height="477.000000pt" viewBox="0 0 349.000000 477.000000"
 preserveAspectRatio="xMidYMid meet">
<metadata>
Created by potrace 1.10, written by Peter Selinger 2001-2011
</metadata>
<g transform="translate(0.000000,477.000000) scale(0.100000,-0.100000)"
fill="#000000" stroke="none">
<path d="M1202 4623 c95 -196 137 -409 123 -623 -14 -226 -72 -402 -187 -573
-62 -92 -79 -111 -342 -377 -323 -326 -443 -487 -532 -709 -84 -210 -109 -356
-101 -591 9 -265 81 -487 225 -695 169 -245 398 -430 662 -535 63 -25 140 -50
156 -50 7 0 -16 28 -50 63 -119 122 -225 307 -265 462 -18 74 -36 220 -35 290
3 133 5 165 13 165 5 0 21 -21 36 -46 46 -78 141 -179 232 -248 48 -36 89 -62
91 -57 2 5 -15 66 -37 134 -78 245 -102 416 -82 591 30 265 138 478 323 637
38 33 72 58 74 56 3 -2 -7 -40 -22 -83 -47 -143 -47 -339 0 -469 50 -138 135
-242 321 -390 232 -186 305 -313 305 -534 0 -201 -65 -385 -189 -540 l-35 -44
40 7 c21 4 82 24 134 43 445 166 816 527 965 938 90 247 120 436 112 705 -6
209 -27 332 -93 537 -60 187 -232 506 -343 633 -25 29 -32 33 -41 20 -5 -8
-10 -37 -10 -65 -1 -73 -26 -244 -54 -361 -53 -216 -153 -399 -249 -454 -87
-50 -174 -34 -219 38 -18 29 -23 55 -26 127 -4 91 -1 113 59 390 26 123 35
327 19 451 -32 248 -147 489 -342 714 -140 161 -342 316 -530 405 -96 45 -113
51 -106 38z"/>
</g>
</svg>
