<svg width="319.825" height="68.556" viewBox="0 0 319.825 68.556" xmlns="http://www.w3.org/2000/svg"><g id="svgGroup" stroke-linecap="round" fill-rule="evenodd" font-size="9pt" stroke="#000000" stroke-width="0" fill="#000" style="stroke:#000000;stroke-width:0;fill:#000"><path d="M 200.586 67.676 L 189.941 68.164 Q 189.551 67.774 189.551 66.504 Q 189.551 65.332 189.941 65.332 Q 190.723 65.332 192.09 65.039 Q 193.457 64.747 194.629 64.258 Q 195.801 63.77 195.898 63.379 Q 196.582 60.743 196.582 56.641 L 196.582 14.258 Q 196.582 10.938 195.996 8.008 Q 195.605 6.446 191.016 6.446 L 190.137 6.446 Q 189.551 6.446 189.551 5.372 Q 189.551 3.809 190.137 3.809 Q 195.117 3.321 198.535 2.198 Q 201.953 1.075 203.223 0.391 L 203.711 0.098 L 203.906 0.098 Q 204.297 0.098 204.688 0.635 Q 205.078 1.172 205.176 1.661 Q 204.102 4.883 204.102 10.157 L 204.102 31.543 Q 204.102 31.934 204.297 31.934 Q 204.395 31.934 204.59 31.739 Q 206.055 30.176 208.35 28.663 Q 210.645 27.149 213.281 26.123 Q 215.918 25.098 218.262 25.098 Q 224.805 25.098 227.637 29.786 Q 230.469 34.473 230.469 44.239 L 230.469 54.786 Q 230.469 57.52 230.664 59.668 Q 230.859 61.817 231.25 63.379 Q 231.445 63.77 232.617 64.258 Q 233.789 64.747 235.156 65.039 Q 236.523 65.332 237.109 65.332 Q 237.402 65.332 237.5 66.504 Q 237.598 67.676 237.402 68.164 L 226.953 67.676 L 216.699 68.164 Q 216.309 67.774 216.309 66.504 Q 216.309 65.332 216.699 65.332 Q 217.48 65.332 218.75 65.039 Q 220.02 64.747 221.094 64.258 Q 222.168 63.77 222.266 63.379 Q 222.656 62.012 222.803 60.254 Q 222.949 58.497 222.949 56.543 L 222.949 46.192 Q 222.949 40.137 221.875 36.866 Q 220.801 33.594 218.555 32.325 Q 216.309 31.055 212.793 31.055 Q 210.84 31.055 208.838 32.178 Q 206.836 33.301 205.469 34.766 Q 204.102 36.231 204.102 37.403 L 204.102 54.688 Q 204.102 57.52 204.297 59.668 Q 204.492 61.817 204.883 63.379 Q 205.078 63.77 206.25 64.258 Q 207.422 64.747 208.789 65.039 Q 210.156 65.332 210.742 65.332 Q 211.035 65.332 211.133 66.504 Q 211.23 67.676 211.035 68.164 L 200.586 67.676 Z M 12.305 67.676 L 0.391 68.164 Q 0.098 67.872 0.098 66.407 Q 0.098 65.137 0.391 65.137 Q 1.367 65.137 2.783 64.844 Q 4.199 64.551 5.518 64.112 Q 6.836 63.672 7.129 63.086 Q 7.813 62.012 7.813 53.907 L 7.813 16.993 Q 7.813 14.161 7.666 12.012 Q 7.52 9.864 7.129 8.594 Q 6.934 8.008 5.615 7.52 Q 4.297 7.032 2.783 6.739 Q 1.27 6.446 0.391 6.446 Q 0 6.446 0 5.274 Q 0 4.004 0.391 3.614 L 12.109 3.809 Q 13.574 3.809 15.332 3.76 Q 17.09 3.711 19.043 3.614 Q 20.996 3.516 22.754 3.467 Q 24.512 3.418 25.879 3.418 Q 29.102 3.418 32.422 4.395 Q 35.742 5.372 38.77 7.325 Q 41.895 9.278 43.799 12.891 Q 45.703 16.504 45.703 21.289 Q 45.703 24.317 44.434 27.735 Q 43.164 31.153 40.674 34.131 Q 38.184 37.11 34.424 38.965 Q 30.664 40.821 25.781 40.821 Q 20.313 40.821 18.262 38.086 Q 17.676 37.403 17.969 35.84 Q 18.164 35.352 18.262 35.547 Q 21.289 36.622 24.805 36.622 Q 28.125 36.622 30.811 34.717 Q 33.496 32.813 35.107 29.639 Q 36.719 26.465 36.719 22.754 Q 36.719 15.821 33.691 11.768 Q 30.664 7.715 24.316 7.715 Q 19.824 7.715 17.48 8.399 Q 16.602 8.497 16.455 11.426 Q 16.309 14.356 16.309 19.141 L 16.309 54.004 Q 16.309 60.45 17.09 62.5 Q 17.48 63.282 18.994 63.965 Q 20.508 64.649 22.266 64.991 Q 24.023 65.332 24.805 65.332 Q 25.195 65.332 25.195 66.7 Q 25.195 67.383 25 68.164 Q 20.117 67.969 16.943 67.823 Q 13.77 67.676 12.305 67.676 Z M 294.727 67.676 L 284.473 68.164 Q 284.18 67.872 284.131 66.602 Q 284.082 65.332 284.473 65.332 Q 285.254 65.332 286.523 65.039 Q 287.793 64.747 288.916 64.258 Q 290.039 63.77 290.137 63.379 Q 290.625 61.426 290.869 59.278 Q 291.113 57.129 291.113 54.688 L 291.113 32.227 Q 291.113 31.543 290.625 31.543 L 285.449 31.543 Q 285.156 31.543 285.156 30.957 Q 285.156 30.079 286.67 28.516 Q 288.184 26.954 290.039 26.954 L 290.625 26.954 Q 291.113 26.954 291.113 26.368 L 291.113 25.098 Q 291.113 19.922 292.773 15.43 Q 294.434 10.938 297.217 7.422 Q 300 3.907 303.467 1.954 Q 306.934 0 310.547 0 Q 317.676 0 319.824 3.809 Q 319.824 9.961 316.309 9.961 Q 315.234 9.961 314.355 9.034 Q 313.477 8.106 312.549 6.885 Q 311.621 5.664 310.4 4.737 Q 309.18 3.809 307.52 3.809 Q 304.688 3.809 302.637 6.25 Q 300.586 8.692 299.561 12.696 Q 298.535 16.7 298.535 21.485 L 298.535 26.465 Q 298.535 26.954 299.023 26.954 L 309.863 26.954 Q 310.352 26.954 310.352 27.637 Q 310.352 29.2 309.18 31.543 L 299.121 31.543 Q 298.535 31.543 298.535 32.129 L 298.535 54.688 Q 298.535 59.961 299.414 63.379 Q 299.609 63.77 300.684 64.258 Q 301.758 64.747 303.027 65.039 Q 304.297 65.332 304.883 65.332 Q 305.176 65.332 305.273 66.504 Q 305.371 67.676 305.176 68.164 L 294.727 67.676 Z M 108.691 67.676 L 98.047 68.164 Q 97.656 67.774 97.656 66.504 Q 97.656 65.332 98.047 65.332 Q 98.828 65.332 100.195 65.039 Q 101.563 64.747 102.734 64.258 Q 103.906 63.77 104.004 63.379 Q 104.395 62.012 104.541 60.254 Q 104.688 58.497 104.688 56.543 L 104.688 14.258 Q 104.688 10.938 104.102 8.008 Q 103.711 6.446 99.121 6.446 L 98.242 6.446 Q 97.656 6.446 97.656 5.372 Q 97.656 3.809 98.242 3.809 Q 104.102 3.125 106.934 2.247 Q 109.766 1.368 110.84 0.684 L 111.816 0.098 L 112.012 0.098 Q 112.402 0.098 112.793 0.635 Q 113.184 1.172 113.281 1.661 Q 112.207 4.883 112.207 10.157 L 112.207 54.688 Q 112.207 57.52 112.402 59.668 Q 112.598 61.817 112.988 63.379 Q 113.184 63.77 114.355 64.258 Q 115.527 64.747 116.895 65.039 Q 118.262 65.332 118.848 65.332 Q 119.141 65.332 119.238 66.504 Q 119.336 67.676 119.141 68.164 L 108.691 67.676 Z M 184.961 58.789 L 185.645 58.301 Q 186.23 58.301 186.23 59.571 Q 186.23 60.254 185.645 61.329 Q 183.691 64.063 179.883 66.26 Q 176.074 68.457 171.582 68.457 Q 166.211 68.457 161.719 65.625 Q 157.227 62.793 154.541 58.057 Q 151.855 53.321 151.855 47.461 Q 151.855 41.407 154.053 36.377 Q 156.25 31.348 160.498 28.321 Q 164.746 25.293 170.801 25.293 Q 181.543 25.293 185.645 30.274 Q 185.645 36.817 182.031 36.817 Q 180.371 36.817 179.492 36.084 Q 178.613 35.352 177.246 33.399 Q 174.219 28.907 170.02 28.907 Q 166.016 28.907 162.744 32.715 Q 159.473 36.524 159.473 44.043 Q 159.473 51.856 163.33 57.032 Q 167.188 62.207 174.023 62.207 Q 178.125 62.207 180.908 60.987 Q 183.691 59.766 184.961 58.789 Z M 276.27 45.215 L 251.66 45.215 Q 250.879 45.215 250.879 45.704 Q 250.879 49.805 252.539 53.565 Q 254.199 57.325 257.422 59.766 Q 260.645 62.207 265.332 62.207 Q 269.434 62.207 272.217 60.987 Q 275 59.766 276.27 58.789 L 276.953 58.301 Q 277.539 58.301 277.539 59.571 Q 277.539 60.254 276.953 61.329 Q 275 64.063 271.191 66.26 Q 267.383 68.457 262.891 68.457 Q 257.52 68.457 253.027 65.625 Q 248.535 62.793 245.85 58.057 Q 243.164 53.321 243.164 47.461 Q 243.164 40.625 245.703 35.645 Q 248.242 30.664 252.637 27.979 Q 257.031 25.293 262.5 25.293 Q 266.992 25.293 270.41 27.002 Q 273.828 28.711 275.684 31.348 Q 277.441 34.082 278.272 36.866 Q 279.102 39.649 279.102 42.383 Q 279.102 44.336 278.516 44.776 Q 277.93 45.215 276.27 45.215 Z M 71.387 68.555 Q 65.527 68.555 60.645 65.625 Q 55.762 62.696 52.881 57.715 Q 50 52.735 50 46.778 Q 50 40.723 52.783 35.84 Q 55.566 30.957 60.352 28.077 Q 65.137 25.196 71.191 25.196 Q 77.051 25.196 81.885 28.125 Q 86.719 31.055 89.6 35.938 Q 92.48 40.821 92.48 46.778 Q 92.48 52.735 89.648 57.715 Q 86.816 62.696 82.08 65.625 Q 77.344 68.555 71.387 68.555 Z M 134.863 67.676 L 124.219 68.164 Q 123.828 67.774 123.828 66.504 Q 123.828 65.332 124.219 65.332 Q 125 65.332 126.367 65.039 Q 127.734 64.747 128.906 64.258 Q 130.078 63.77 130.176 63.379 Q 130.566 62.012 130.713 60.254 Q 130.859 58.497 130.859 56.543 L 130.859 38.086 Q 130.859 34.375 129.492 32.813 Q 128.516 31.543 127.148 31.202 Q 125.781 30.86 124.805 30.811 Q 123.828 30.762 123.828 30.567 Q 123.828 28.223 124.414 28.125 Q 129.59 27.344 132.324 26.807 Q 135.059 26.27 137.207 25.782 L 138.379 25.489 Q 138.77 25.391 138.867 26.27 Q 138.965 27.149 138.867 27.539 Q 138.672 29.493 138.525 31.25 Q 138.379 33.008 138.379 34.571 L 138.379 54.688 Q 138.379 57.52 138.574 59.668 Q 138.77 61.817 139.16 63.379 Q 139.355 63.77 140.527 64.258 Q 141.699 64.747 143.066 65.039 Q 144.434 65.332 145.02 65.332 Q 145.313 65.332 145.41 66.504 Q 145.508 67.676 145.313 68.164 L 134.863 67.676 Z M 72.266 64.747 Q 75.781 64.747 78.418 62.5 Q 81.055 60.254 82.568 56.446 Q 84.082 52.637 84.082 48.145 Q 84.082 42.872 82.129 38.526 Q 80.176 34.18 77.002 31.592 Q 73.828 29.004 70.117 29.004 Q 66.699 29.004 64.014 31.202 Q 61.328 33.399 59.863 37.061 Q 58.398 40.723 58.398 45.313 Q 58.398 50.586 60.303 55.03 Q 62.207 59.473 65.381 62.11 Q 68.555 64.747 72.266 64.747 Z M 251.66 41.114 L 270.703 41.114 Q 271.191 41.114 271.191 40.137 Q 271.191 37.989 270.068 35.401 Q 268.945 32.813 266.699 30.86 Q 264.453 28.907 261.035 28.907 Q 257.91 28.907 255.664 31.006 Q 253.418 33.106 252.246 35.791 Q 251.074 38.477 251.074 40.43 Q 251.074 41.114 251.66 41.114 Z M 133.887 14.844 Q 131.934 14.844 130.469 13.379 Q 129.004 11.914 129.004 9.961 Q 129.004 7.911 130.469 6.495 Q 131.934 5.079 133.887 5.079 Q 135.938 5.079 137.354 6.495 Q 138.77 7.911 138.77 9.961 Q 138.77 11.914 137.354 13.379 Q 135.938 14.844 133.887 14.844 Z" vector-effect="non-scaling-stroke"/></g></svg>